<svg xmlns="http://www.w3.org/2000/svg" width="300" height="300" viewBox="0 0 300 300">
  <g fill="#009ee0" opacity="0.8">
    <path d="M60,110 C60,132.1 82.9,150 110,150 C137.1,150 160,132.1 160,110 C160,88 140,45 110,10 C80,45 60,88 60,110 Z" opacity="0.4"/>
    <path d="M150,170 C150,186.6 166.4,200 186,200 C205.6,200 222,186.6 222,170 C222,153.5 206.9,122.5 186,95 C165.1,122.5 150,153.5 150,170 Z" opacity="0.5"/>
    <path d="M25,180 C25,191.1 36.4,200 50,200 C63.6,200 75,191.1 75,180 C75,168.9 64.1,147.2 50,130 C35.9,147.2 25,168.9 25,180 Z" opacity="0.3"/>
    <path d="M200,50 C200,61.1 211.4,70 225,70 C238.6,70 250,61.1 250,50 C250,38.9 239.1,17.2 225,0 C210.9,17.2 200,38.9 200,50 Z" opacity="0.2"/>
    <path d="M220,250 C220,261.1 231.4,270 245,270 C258.6,270 270,261.1 270,250 C270,238.9 259.1,217.2 245,200 C230.9,217.2 220,238.9 220,250 Z" opacity="0.25"/>
    <path d="M10,70 C10,76.1 16.4,81 24,81 C31.6,81 38,76.1 38,70 C38,63.9 31.8,52.2 24,43 C16.2,52.2 10,63.9 10,70 Z" opacity="0.35"/>
  </g>
</svg> 