<svg xmlns="http://www.w3.org/2000/svg" width="1000" height="1000" viewBox="0 0 1000 1000">
  <defs>
    <pattern id="wave-pattern" x="0" y="0" width="200" height="200" patternUnits="userSpaceOnUse">
      <!-- Первая группа волн -->
      <path d="M0,100 C30,70 70,70 100,100 C130,130 170,130 200,100" fill="none" stroke="#1e88e5" stroke-width="2" />
      <path d="M0,50 C30,20 70,20 100,50 C130,80 170,80 200,50" fill="none" stroke="#1e88e5" stroke-width="1.5" />
      <path d="M0,150 C30,120 70,120 100,150 C130,180 170,180 200,150" fill="none" stroke="#1e88e5" stroke-width="1.5" />
      
      <!-- Вторая группа волн (смещенная) -->
      <path d="M50,75 C80,45 120,45 150,75 C180,105 220,105 250,75" fill="none" stroke="#00b0ff" stroke-width="1" />
      <path d="M50,125 C80,95 120,95 150,125 C180,155 220,155 250,125" fill="none" stroke="#00b0ff" stroke-width="1" />
      
      <!-- Круги для создания эффекта капель -->
      <circle cx="25" cy="25" r="3" fill="#1e88e5" opacity="0.3" />
      <circle cx="125" cy="75" r="2" fill="#00b0ff" opacity="0.2" />
      <circle cx="75" cy="175" r="4" fill="#1e88e5" opacity="0.2" />
      <circle cx="175" cy="125" r="3" fill="#00b0ff" opacity="0.3" />
    </pattern>
  </defs>
  
  <rect width="100%" height="100%" fill="url(#wave-pattern)" />
</svg> 